<mxfile host="app.diagrams.net" agent="Mozilla/5.0 (Windows NT 10.0; Win64; x64) AppleWebKit/537.36 (KHTML, like Gecko) Chrome/130.0.0.0 Safari/537.36" version="24.8.4">
  <diagram name="Page-1" id="VqABQ6waJaX8wADfz2yS">
    <mxGraphModel dx="3493" dy="2023" grid="1" gridSize="10" guides="1" tooltips="1" connect="1" arrows="1" fold="1" page="1" pageScale="1" pageWidth="850" pageHeight="1100" math="0" shadow="0">
      <root>
        <mxCell id="0" />
        <mxCell id="1" parent="0" />
        <mxCell id="ILsbi1_Pz7X4a5qrp2CL-67" style="edgeStyle=orthogonalEdgeStyle;rounded=0;orthogonalLoop=1;jettySize=auto;html=1;entryX=0;entryY=0.5;entryDx=0;entryDy=0;" edge="1" parent="1" source="ILsbi1_Pz7X4a5qrp2CL-9" target="ILsbi1_Pz7X4a5qrp2CL-42">
          <mxGeometry relative="1" as="geometry" />
        </mxCell>
        <mxCell id="ILsbi1_Pz7X4a5qrp2CL-68" value="&lt;font style=&quot;font-size: 14px;&quot;&gt;1 : N&lt;/font&gt;" style="edgeLabel;html=1;align=center;verticalAlign=middle;resizable=0;points=[];" vertex="1" connectable="0" parent="ILsbi1_Pz7X4a5qrp2CL-67">
          <mxGeometry x="-0.7917" y="2" relative="1" as="geometry">
            <mxPoint as="offset" />
          </mxGeometry>
        </mxCell>
        <mxCell id="ILsbi1_Pz7X4a5qrp2CL-9" value="FuncionÃ¡rio" style="swimlane;fontStyle=1;align=center;verticalAlign=top;childLayout=stackLayout;horizontal=1;startSize=26;horizontalStack=0;resizeParent=1;resizeParentMax=0;resizeLast=0;collapsible=1;marginBottom=0;whiteSpace=wrap;html=1;" vertex="1" parent="1">
          <mxGeometry x="-1680" y="-780" width="400" height="140" as="geometry">
            <mxRectangle x="-1680" y="-760" width="100" height="30" as="alternateBounds" />
          </mxGeometry>
        </mxCell>
        <mxCell id="ILsbi1_Pz7X4a5qrp2CL-10" value="idprofessor: INT (PK)&lt;div&gt;nome: String&lt;/div&gt;&lt;div&gt;sobrenome: String&lt;/div&gt;&lt;div&gt;matricula: INT&lt;/div&gt;&lt;div&gt;emailinstitucional: String&lt;/div&gt;&lt;div&gt;senha: String&lt;/div&gt;&lt;div&gt;funcao String (ENUM: &#39;professor&#39;, &#39;administrativo&#39;, &#39;coordenacao&#39;)&lt;/div&gt;" style="text;strokeColor=none;fillColor=none;align=left;verticalAlign=top;spacingLeft=4;spacingRight=4;overflow=hidden;rotatable=0;points=[[0,0.5],[1,0.5]];portConstraint=eastwest;whiteSpace=wrap;html=1;" vertex="1" parent="ILsbi1_Pz7X4a5qrp2CL-9">
          <mxGeometry y="26" width="400" height="114" as="geometry" />
        </mxCell>
        <mxCell id="ILsbi1_Pz7X4a5qrp2CL-13" value="Curso" style="swimlane;fontStyle=1;align=center;verticalAlign=top;childLayout=stackLayout;horizontal=1;startSize=26;horizontalStack=0;resizeParent=1;resizeParentMax=0;resizeLast=0;collapsible=1;marginBottom=0;whiteSpace=wrap;html=1;" vertex="1" parent="1">
          <mxGeometry x="-680" y="-920" width="160" height="80" as="geometry">
            <mxRectangle x="-1680" y="-680" width="70" height="30" as="alternateBounds" />
          </mxGeometry>
        </mxCell>
        <mxCell id="ILsbi1_Pz7X4a5qrp2CL-14" value="idcurso: INT (PK)&lt;div&gt;curso: String&lt;/div&gt;&lt;div&gt;siglacurso: String&lt;/div&gt;" style="text;strokeColor=none;fillColor=none;align=left;verticalAlign=top;spacingLeft=4;spacingRight=4;overflow=hidden;rotatable=0;points=[[0,0.5],[1,0.5]];portConstraint=eastwest;whiteSpace=wrap;html=1;" vertex="1" parent="ILsbi1_Pz7X4a5qrp2CL-13">
          <mxGeometry y="26" width="160" height="54" as="geometry" />
        </mxCell>
        <mxCell id="ILsbi1_Pz7X4a5qrp2CL-21" value="CategoriaFaltas" style="swimlane;fontStyle=1;align=center;verticalAlign=top;childLayout=stackLayout;horizontal=1;startSize=26;horizontalStack=0;resizeParent=1;resizeParentMax=0;resizeLast=0;collapsible=1;marginBottom=0;whiteSpace=wrap;html=1;" vertex="1" parent="1">
          <mxGeometry x="-1680" y="-920" width="160" height="80" as="geometry">
            <mxRectangle x="-1480" y="-360" width="130" height="30" as="alternateBounds" />
          </mxGeometry>
        </mxCell>
        <mxCell id="ILsbi1_Pz7X4a5qrp2CL-22" value="idcategoria: INT (PK)&lt;div&gt;codcategoria: String&lt;/div&gt;&lt;div&gt;categoria: String&lt;/div&gt;" style="text;strokeColor=none;fillColor=none;align=left;verticalAlign=top;spacingLeft=4;spacingRight=4;overflow=hidden;rotatable=0;points=[[0,0.5],[1,0.5]];portConstraint=eastwest;whiteSpace=wrap;html=1;" vertex="1" parent="ILsbi1_Pz7X4a5qrp2CL-21">
          <mxGeometry y="26" width="160" height="54" as="geometry" />
        </mxCell>
        <mxCell id="ILsbi1_Pz7X4a5qrp2CL-29" value="JustificativaFaltas" style="swimlane;fontStyle=1;align=center;verticalAlign=top;childLayout=stackLayout;horizontal=1;startSize=26;horizontalStack=0;resizeParent=1;resizeParentMax=0;resizeLast=0;collapsible=1;marginBottom=0;whiteSpace=wrap;html=1;" vertex="1" parent="1">
          <mxGeometry x="-1440" y="-920" width="160" height="80" as="geometry">
            <mxRectangle x="-1480" y="-280" width="140" height="30" as="alternateBounds" />
          </mxGeometry>
        </mxCell>
        <mxCell id="ILsbi1_Pz7X4a5qrp2CL-30" value="idjustificativa: INT (PK)&lt;div&gt;justificativa: String&lt;/div&gt;&lt;div&gt;idcategoria: INT (FK)&lt;/div&gt;" style="text;strokeColor=none;fillColor=none;align=left;verticalAlign=top;spacingLeft=4;spacingRight=4;overflow=hidden;rotatable=0;points=[[0,0.5],[1,0.5]];portConstraint=eastwest;whiteSpace=wrap;html=1;" vertex="1" parent="ILsbi1_Pz7X4a5qrp2CL-29">
          <mxGeometry y="26" width="160" height="54" as="geometry" />
        </mxCell>
        <mxCell id="ILsbi1_Pz7X4a5qrp2CL-33" value="RequisicaoFaltas" style="swimlane;fontStyle=1;align=center;verticalAlign=top;childLayout=stackLayout;horizontal=1;startSize=26;horizontalStack=0;resizeParent=1;resizeParentMax=0;resizeLast=0;collapsible=1;marginBottom=0;whiteSpace=wrap;html=1;" vertex="1" parent="1">
          <mxGeometry x="-1160" y="-920" width="370" height="270" as="geometry">
            <mxRectangle x="-1160" y="-920" width="130" height="30" as="alternateBounds" />
          </mxGeometry>
        </mxCell>
        <mxCell id="ILsbi1_Pz7X4a5qrp2CL-34" value="idrequisicao: INT (PK)&lt;div&gt;idprofessor: INT (FK)&lt;/div&gt;&lt;div&gt;idcurso: INT (FK)&lt;/div&gt;&lt;div&gt;data_inicial: Date&lt;/div&gt;&lt;div&gt;data_final: Date&lt;/div&gt;&lt;div&gt;idcategoria: INT (FK)&lt;/div&gt;&lt;div&gt;idjustificativa: INT (FK)&lt;/div&gt;&lt;div&gt;comentarioProfessor: String&lt;/div&gt;&lt;div&gt;comentarioCordenador: String&lt;/div&gt;&lt;div&gt;statusrequisicao: String (ENUM &#39;aprovado&#39;, &#39;reprovado&#39;, &#39;pendente&#39;)&lt;/div&gt;&lt;div&gt;arquivo01: String&lt;/div&gt;&lt;div&gt;arquivo02: String&lt;/div&gt;&lt;div&gt;arquivo03: String&lt;/div&gt;&lt;div&gt;data_criacao: Timestamp&lt;/div&gt;&lt;div&gt;data_atualizacao: Timestamp&lt;/div&gt;&lt;div&gt;iddisciplina: INT (FK)&lt;/div&gt;" style="text;strokeColor=none;fillColor=none;align=left;verticalAlign=top;spacingLeft=4;spacingRight=4;overflow=hidden;rotatable=0;points=[[0,0.5],[1,0.5]];portConstraint=eastwest;whiteSpace=wrap;html=1;" vertex="1" parent="ILsbi1_Pz7X4a5qrp2CL-33">
          <mxGeometry y="26" width="370" height="244" as="geometry" />
        </mxCell>
        <mxCell id="ILsbi1_Pz7X4a5qrp2CL-59" style="edgeStyle=orthogonalEdgeStyle;rounded=0;orthogonalLoop=1;jettySize=auto;html=1;entryX=1;entryY=0.5;entryDx=0;entryDy=0;" edge="1" parent="1" source="ILsbi1_Pz7X4a5qrp2CL-37" target="ILsbi1_Pz7X4a5qrp2CL-42">
          <mxGeometry relative="1" as="geometry" />
        </mxCell>
        <mxCell id="ILsbi1_Pz7X4a5qrp2CL-60" value="&lt;font style=&quot;font-size: 14px;&quot;&gt;1 : N&lt;/font&gt;" style="edgeLabel;html=1;align=center;verticalAlign=middle;resizable=0;points=[];" vertex="1" connectable="0" parent="ILsbi1_Pz7X4a5qrp2CL-59">
          <mxGeometry x="-0.9223" y="-1" relative="1" as="geometry">
            <mxPoint as="offset" />
          </mxGeometry>
        </mxCell>
        <mxCell id="ILsbi1_Pz7X4a5qrp2CL-37" value="Disciplina" style="swimlane;fontStyle=1;align=center;verticalAlign=top;childLayout=stackLayout;horizontal=1;startSize=26;horizontalStack=0;resizeParent=1;resizeParentMax=0;resizeLast=0;collapsible=1;marginBottom=0;whiteSpace=wrap;html=1;" vertex="1" parent="1">
          <mxGeometry x="-682" y="-770" width="160" height="80" as="geometry">
            <mxRectangle x="-1680" y="-1040" width="90" height="30" as="alternateBounds" />
          </mxGeometry>
        </mxCell>
        <mxCell id="ILsbi1_Pz7X4a5qrp2CL-38" value="iddisciplina: INT (PK)&lt;div&gt;disciplina: String&lt;/div&gt;&lt;div&gt;idcurso: INT (FK)&lt;/div&gt;" style="text;strokeColor=none;fillColor=none;align=left;verticalAlign=top;spacingLeft=4;spacingRight=4;overflow=hidden;rotatable=0;points=[[0,0.5],[1,0.5]];portConstraint=eastwest;whiteSpace=wrap;html=1;" vertex="1" parent="ILsbi1_Pz7X4a5qrp2CL-37">
          <mxGeometry y="26" width="160" height="54" as="geometry" />
        </mxCell>
        <mxCell id="ILsbi1_Pz7X4a5qrp2CL-41" value="ReposicaoAulas" style="swimlane;fontStyle=1;align=center;verticalAlign=top;childLayout=stackLayout;horizontal=1;startSize=26;horizontalStack=0;resizeParent=1;resizeParentMax=0;resizeLast=0;collapsible=1;marginBottom=0;whiteSpace=wrap;html=1;" vertex="1" parent="1">
          <mxGeometry x="-1160" y="-561" width="380" height="240" as="geometry">
            <mxRectangle x="-2000" y="-840" width="130" height="30" as="alternateBounds" />
          </mxGeometry>
        </mxCell>
        <mxCell id="ILsbi1_Pz7X4a5qrp2CL-42" value="idreposicao: INT (PK)&lt;div&gt;tiporeposicao: String (ENUM &#39;Auma Ministrada&#39;, &#39;Atividades&#39;, &#39;Outros&#39;)&lt;/div&gt;&lt;div&gt;cxjustificativa: String&lt;/div&gt;&lt;div&gt;numeroaulas: INT&lt;/div&gt;&lt;div&gt;datereposicao: Date&lt;/div&gt;&lt;div&gt;horainicioreposicao: Time&lt;/div&gt;&lt;div&gt;horafinalreposicao: Time&lt;/div&gt;&lt;div&gt;idprofessor: INT (FK)&lt;/div&gt;&lt;div&gt;idcurso: INT (FK)&lt;/div&gt;&lt;div&gt;iddisciplina: INT (FK)&lt;/div&gt;&lt;div&gt;datafaltaaprovada: Date&lt;/div&gt;&lt;div&gt;idrequisicao: INT (FK)&lt;/div&gt;&lt;div&gt;comentarioscoordenacao: String&lt;/div&gt;" style="text;strokeColor=none;fillColor=none;align=left;verticalAlign=top;spacingLeft=4;spacingRight=4;overflow=hidden;rotatable=0;points=[[0,0.5],[1,0.5]];portConstraint=eastwest;whiteSpace=wrap;html=1;" vertex="1" parent="ILsbi1_Pz7X4a5qrp2CL-41">
          <mxGeometry y="26" width="380" height="214" as="geometry" />
        </mxCell>
        <mxCell id="ILsbi1_Pz7X4a5qrp2CL-50" style="edgeStyle=orthogonalEdgeStyle;rounded=0;orthogonalLoop=1;jettySize=auto;html=1;exitX=1;exitY=0.5;exitDx=0;exitDy=0;entryX=0;entryY=0.5;entryDx=0;entryDy=0;" edge="1" parent="1" source="ILsbi1_Pz7X4a5qrp2CL-22" target="ILsbi1_Pz7X4a5qrp2CL-30">
          <mxGeometry relative="1" as="geometry" />
        </mxCell>
        <mxCell id="ILsbi1_Pz7X4a5qrp2CL-51" value="&lt;font style=&quot;font-size: 14px;&quot;&gt;1 : N&lt;/font&gt;" style="edgeLabel;html=1;align=center;verticalAlign=middle;resizable=0;points=[];" vertex="1" connectable="0" parent="ILsbi1_Pz7X4a5qrp2CL-50">
          <mxGeometry x="-0.1901" y="1" relative="1" as="geometry">
            <mxPoint as="offset" />
          </mxGeometry>
        </mxCell>
        <mxCell id="ILsbi1_Pz7X4a5qrp2CL-57" style="edgeStyle=orthogonalEdgeStyle;rounded=0;orthogonalLoop=1;jettySize=auto;html=1;exitX=0.5;exitY=0;exitDx=0;exitDy=0;entryX=0.477;entryY=0.997;entryDx=0;entryDy=0;entryPerimeter=0;" edge="1" parent="1" source="ILsbi1_Pz7X4a5qrp2CL-37" target="ILsbi1_Pz7X4a5qrp2CL-14">
          <mxGeometry relative="1" as="geometry" />
        </mxCell>
        <mxCell id="ILsbi1_Pz7X4a5qrp2CL-58" value="&lt;font style=&quot;font-size: 14px;&quot;&gt;1 : N&lt;/font&gt;" style="edgeLabel;html=1;align=center;verticalAlign=middle;resizable=0;points=[];" vertex="1" connectable="0" parent="ILsbi1_Pz7X4a5qrp2CL-57">
          <mxGeometry x="-0.0278" y="2" relative="1" as="geometry">
            <mxPoint y="-2" as="offset" />
          </mxGeometry>
        </mxCell>
        <mxCell id="ILsbi1_Pz7X4a5qrp2CL-61" style="edgeStyle=orthogonalEdgeStyle;rounded=0;orthogonalLoop=1;jettySize=auto;html=1;exitX=0.5;exitY=1;exitDx=0;exitDy=0;entryX=0.487;entryY=0.015;entryDx=0;entryDy=0;entryPerimeter=0;" edge="1" parent="1" source="ILsbi1_Pz7X4a5qrp2CL-33" target="ILsbi1_Pz7X4a5qrp2CL-41">
          <mxGeometry relative="1" as="geometry" />
        </mxCell>
        <mxCell id="ILsbi1_Pz7X4a5qrp2CL-62" value="&lt;font style=&quot;font-size: 14px;&quot;&gt;1 : N&lt;/font&gt;" style="edgeLabel;html=1;align=center;verticalAlign=middle;resizable=0;points=[];" vertex="1" connectable="0" parent="ILsbi1_Pz7X4a5qrp2CL-61">
          <mxGeometry x="-0.0459" relative="1" as="geometry">
            <mxPoint y="-1" as="offset" />
          </mxGeometry>
        </mxCell>
        <mxCell id="ILsbi1_Pz7X4a5qrp2CL-63" style="edgeStyle=orthogonalEdgeStyle;rounded=0;orthogonalLoop=1;jettySize=auto;html=1;exitX=1;exitY=0.5;exitDx=0;exitDy=0;entryX=-0.002;entryY=0.109;entryDx=0;entryDy=0;entryPerimeter=0;" edge="1" parent="1" source="ILsbi1_Pz7X4a5qrp2CL-30" target="ILsbi1_Pz7X4a5qrp2CL-34">
          <mxGeometry relative="1" as="geometry" />
        </mxCell>
        <mxCell id="ILsbi1_Pz7X4a5qrp2CL-64" value="&lt;font style=&quot;font-size: 14px;&quot;&gt;1 : N&lt;/font&gt;" style="edgeLabel;html=1;align=center;verticalAlign=middle;resizable=0;points=[];" vertex="1" connectable="0" parent="ILsbi1_Pz7X4a5qrp2CL-63">
          <mxGeometry x="-0.3037" y="1" relative="1" as="geometry">
            <mxPoint y="1" as="offset" />
          </mxGeometry>
        </mxCell>
        <mxCell id="ILsbi1_Pz7X4a5qrp2CL-65" style="edgeStyle=orthogonalEdgeStyle;rounded=0;orthogonalLoop=1;jettySize=auto;html=1;exitX=1;exitY=0.5;exitDx=0;exitDy=0;entryX=0.011;entryY=0.809;entryDx=0;entryDy=0;entryPerimeter=0;" edge="1" parent="1" source="ILsbi1_Pz7X4a5qrp2CL-10" target="ILsbi1_Pz7X4a5qrp2CL-34">
          <mxGeometry relative="1" as="geometry" />
        </mxCell>
        <mxCell id="ILsbi1_Pz7X4a5qrp2CL-66" value="&lt;font style=&quot;font-size: 14px;&quot;&gt;1 : N&lt;/font&gt;" style="edgeLabel;html=1;align=center;verticalAlign=middle;resizable=0;points=[];" vertex="1" connectable="0" parent="ILsbi1_Pz7X4a5qrp2CL-65">
          <mxGeometry x="-0.1833" y="3" relative="1" as="geometry">
            <mxPoint x="7" y="3" as="offset" />
          </mxGeometry>
        </mxCell>
        <mxCell id="ILsbi1_Pz7X4a5qrp2CL-69" style="edgeStyle=orthogonalEdgeStyle;rounded=0;orthogonalLoop=1;jettySize=auto;html=1;exitX=0;exitY=0.5;exitDx=0;exitDy=0;entryX=0.996;entryY=0.111;entryDx=0;entryDy=0;entryPerimeter=0;" edge="1" parent="1" source="ILsbi1_Pz7X4a5qrp2CL-14" target="ILsbi1_Pz7X4a5qrp2CL-34">
          <mxGeometry relative="1" as="geometry" />
        </mxCell>
        <mxCell id="ILsbi1_Pz7X4a5qrp2CL-70" value="&lt;font style=&quot;font-size: 14px;&quot;&gt;1 : N&lt;/font&gt;" style="edgeLabel;html=1;align=center;verticalAlign=middle;resizable=0;points=[];" vertex="1" connectable="0" parent="ILsbi1_Pz7X4a5qrp2CL-69">
          <mxGeometry x="0.1277" y="-1" relative="1" as="geometry">
            <mxPoint as="offset" />
          </mxGeometry>
        </mxCell>
      </root>
    </mxGraphModel>
  </diagram>
</mxfile>
